<svg id="Capa_1" enable-background="new 0 0 512 512" height="512" viewBox="0 0 512 512" width="512" xmlns="http://www.w3.org/2000/svg"><g><g><g><path d="m255.998 330.001c-1.582 0-3.181-.251-4.741-.771-6.126-2.042-10.257-7.773-10.257-14.23v-65h-185c-30.327 0-55-24.673-55-55v-140c0-30.327 24.673-55 55-55h400c30.327 0 55 24.673 55 55v140c0 30.327-24.673 55-55 55h-132.5l-55.5 74c-2.888 3.85-7.371 6.001-12.002 6.001z" fill="#dcf0ff"/></g></g><path d="m268 324 55.5-74h132.5c30.327 0 55-24.673 55-55v-140c0-30.327-24.673-55-55-55h-200v330.001c4.631-.001 9.113-2.152 12-6.001z" fill="#bedcf0"/><g><g><path d="m145.383 190.479c-2.388 0-4.784-.569-6.979-1.723l-29.072-15.284-29.072 15.283c-5.053 2.657-11.177 2.215-15.797-1.142-4.619-3.356-6.933-9.043-5.967-14.671l5.552-32.372-23.52-22.926c-4.088-3.985-5.56-9.946-3.795-15.376 1.764-5.43 6.458-9.388 12.109-10.209l32.503-4.723 14.536-29.453c2.527-5.12 7.742-8.361 13.451-8.361s10.924 3.242 13.451 8.361l14.536 29.453 32.503 4.723c5.65.821 10.345 4.779 12.109 10.209 1.765 5.43.293 11.391-3.795 15.376l-23.52 22.926 5.552 32.372c.965 5.627-1.348 11.315-5.967 14.671-2.613 1.899-5.708 2.866-8.818 2.866z" fill="#ffe350"/></g><g><path d="m366.617 190.479c-3.11 0-6.205-.966-8.818-2.865-4.619-3.356-6.933-9.043-5.967-14.671l5.552-32.372-23.52-22.926c-4.088-3.985-5.56-9.946-3.795-15.376 1.764-5.43 6.458-9.388 12.109-10.209l32.503-4.723 14.536-29.453c2.527-5.12 7.742-8.361 13.451-8.361s10.924 3.242 13.451 8.361l14.536 29.453 32.503 4.723c5.65.821 10.345 4.779 12.109 10.209 1.765 5.43.293 11.391-3.795 15.376l-23.52 22.926 5.552 32.372c.965 5.627-1.348 11.315-5.967 14.671-4.62 3.355-10.744 3.798-15.797 1.142l-29.072-15.284-29.072 15.284c-2.195 1.153-4.591 1.723-6.979 1.723z" fill="#f58700"/></g><g><path d="m292.05 190.479c-2.388 0-4.784-.569-6.979-1.723l-29.071-15.284-29.072 15.284c-5.053 2.657-11.177 2.215-15.797-1.142-4.619-3.356-6.933-9.043-5.967-14.671l5.553-32.372-23.52-22.926c-4.088-3.985-5.56-9.946-3.796-15.376 1.765-5.43 6.459-9.388 12.109-10.209l32.503-4.723 14.536-29.453c2.527-5.12 7.742-8.361 13.451-8.361s10.924 3.242 13.451 8.361l14.536 29.453 32.503 4.723c5.65.821 10.345 4.779 12.109 10.209s.292 11.391-3.796 15.376l-23.52 22.926 5.552 32.372c.965 5.627-1.348 11.315-5.967 14.671-2.613 1.898-5.708 2.865-8.818 2.865z" fill="#ffc81e"/></g></g><g><g><g><g><g><g><g><path d="m216 512h-200c-8.284 0-15-6.716-15-15 0-63.411 51.589-115 115-115s115 51.589 115 115c0 8.284-6.716 15-15 15z" fill="#49acff"/></g></g><g><path d="m116 382v130h100c8.284 0 15-6.716 15-15 0-63.411-51.589-115-115-115z" fill="#1790e7"/></g><g><g><path d="m116 412c-38.599 0-70-31.402-70-70s31.401-70 70-70 70 31.402 70 70-31.401 70-70 70z" fill="#ffd5b6"/></g></g><g><path d="m116 272v140c38.599 0 70-31.402 70-70s-31.401-70-70-70z" fill="#ffc896"/></g></g></g></g></g></g><g><path d="m285.072 188.755c2.195 1.154 4.591 1.723 6.979 1.723 3.11 0 6.205-.966 8.818-2.865 4.619-3.356 6.933-9.043 5.967-14.671l-5.552-32.372 23.52-22.926c4.088-3.985 5.56-9.946 3.796-15.376-1.765-5.43-6.459-9.388-12.109-10.209l-32.503-4.723-14.536-29.453c-2.527-5.12-7.742-8.361-13.451-8.361v123.95z" fill="#faaa0f"/></g></g></svg>