<svg id="flat" height="512" viewBox="0 0 512 512" width="512" xmlns="http://www.w3.org/2000/svg"><path d="m312 400 8-32h24l24 16v16z" fill="#e0edff"/><path d="m256 80v64h40v-17.54468a16.94834 16.94834 0 0 0 7.02942 1.54468h.00006a16.97053 16.97053 0 0 0 16.97052-16.97058v-31.02942z" fill="#ffceb6"/><path d="m283.99984 40h.00007a36.00007 36.00007 0 0 1 36.00009 36.00006v3.99994h-40v7.99987a16.00013 16.00013 0 0 1 -16.00013 16.00013 16.00013 16.00013 0 0 1 -16.00013-16.0002l.00006-11.9999a36.00007 36.00007 0 0 1 36.00004-35.9999z" fill="#ffb401"/><path d="m368 276.22a28.2413 28.2413 0 0 1 -.99 7.42993l-23.01 84.35007h-24v-88h-80a31.99119 31.99119 0 0 1 -32-32 120.46621 120.46621 0 0 1 9.23-46.15l22.15-53.17a33.602 33.602 0 0 1 64.62 12.92v46.4l24 3v37h11.78a28.20146 28.20146 0 0 1 28.22 28.22z" fill="#ffc431"/><path d="m383.23584 229.27588-27.51709-41.27588h-3.71875v-16h8a7.99943 7.99943 0 0 1 6.65625 3.5625l29.89209 44.83838z" fill="#62798c"/><path d="m160 176v-8a24 24 0 0 0 -24-24h-56v32z" fill="#ffb401"/><path d="m96 176v-16a16 16 0 0 0 -16-16h-24a24 24 0 0 0 -24 24v8z" fill="#ffa100"/><path d="m176 176-24 112h-104l-24-112z" fill="#c78640"/><path d="m104 224h32l8-48h-40z" fill="#ffcc4d"/><path d="m72 168v88h32l16-88z" fill="#ffc431"/><path d="m88 344-16-16v-16h32z" fill="#ef5e3b"/><circle cx="440" cy="424" fill="#bed3f7" r="48"/><path d="m440 480a56 56 0 1 1 56-56 56.06353 56.06353 0 0 1 -56 56zm0-96a40 40 0 1 0 40 40 40.04521 40.04521 0 0 0 -40-40z" fill="#62798c"/><path d="m384 392 43.02944 43.02944a16.97054 16.97054 0 0 0 12 4.97056 16.97054 16.97054 0 0 0 16.97056-16.97055 16.97054 16.97054 0 0 0 -4.97056-12l-43.02944-43.02945z" fill="#e0edff"/><path d="m400 336h48a40 40 0 0 1 40 40h-88z" fill="#639aff"/><path d="m208 448h125.79865a64 64 0 0 0 58.82528-38.78916l31.37607-73.21084h32v-24a85.31872 85.31872 0 0 1 -50.29665-35.445l-13.70335-20.555h-24l16 80-24 64h-152z" fill="#548aff"/><circle cx="96" cy="424" fill="#bed3f7" r="48"/><path d="m96 480a56 56 0 1 1 56-56 56.06353 56.06353 0 0 1 -56 56zm0-96a40 40 0 1 0 40 40 40.04521 40.04521 0 0 0 -40-40z" fill="#62798c"/><path d="m104 312h184v24a72 72 0 0 1 -72 72h-56l-72-64z" fill="#639aff"/><path d="m288 312v-8a24 24 0 0 0 -24-24h-88v32z" fill="#c78640"/><path d="m208 448h-64a8 8 0 0 1 -8-8v-32h72z" fill="#d1e4ff"/><path d="m136 440h-40a16 16 0 0 1 -16-16 16 16 0 0 1 16-16h40z" fill="#e0edff"/><path d="m368 256v-40h72l-16 40z" fill="#639aff"/><rect fill="#ffb401" height="53.666" rx="8" transform="matrix(.894 -.447 .447 .894 -51.46 150.012)" width="16" x="284" y="157.167"/><path d="m328 248h23.00389a16.99611 16.99611 0 0 0 16.99611-16.99611 16.99611 16.99611 0 0 0 -14.888-16.86489l-25.112-3.139z" fill="#ffceb6"/><path d="m368 276.22a28.2413 28.2413 0 0 1 -.99 7.42993l-23.01 84.35007h-24v-88h-80a31.99119 31.99119 0 0 1 -32-32 118.68191 118.68191 0 0 1 1.08-16h58.12l3.19 3.99a32.005 32.005 0 0 0 24.99 12.01h44.4a28.20146 28.20146 0 0 1 28.22 28.22z" fill="#8098ab"/><path d="m336 168h16a16 16 0 0 1 16 16v8a0 0 0 0 1 0 0h-16a16 16 0 0 1 -16-16v-8a0 0 0 0 1 0 0z" fill="#8098ab"/><path d="m24 288h152v24h-152z" fill="#d1e4ff"/><path d="m56 168h32v48h-32z" fill="#ffd873"/><path d="m392 256 16-40h32l-16 40z" fill="#e0edff"/><path d="m328 248a8 8 0 0 1 -8 8h-24.62012a39.80475 39.80475 0 0 1 -31.23488-15.01221l-17.39451-21.74323a8 8 0 0 1 1.24951-11.24456l.00015-.00013a8 8 0 0 1 11.24446 1.24945l17.39464 21.7434a23.99971 23.99971 0 0 0 18.74063 9.00728h24.62012a8 8 0 0 1 8 8z" fill="#ffb401"/></svg>