<svg id="Capa_1" enable-background="new 0 0 512 512" height="512" viewBox="0 0 512 512" width="512" xmlns="http://www.w3.org/2000/svg"><g><g><g><path d="m430.829 512h-249.756c-17.242 0-31.22-13.977-31.22-31.22v-449.56c0-17.242 13.977-31.22 31.22-31.22h249.756c17.242 0 31.22 13.977 31.22 31.22v449.56c0 17.243-13.978 31.22-31.22 31.22z" fill="#5766cb"/></g><g><path d="m430.829 0h-23.935c17.242 0 31.22 13.977 31.22 31.22v449.56c0 17.242-13.977 31.22-31.22 31.22h23.935c17.242 0 31.22-13.977 31.22-31.22v-449.56c0-17.243-13.978-31.22-31.22-31.22z" fill="#3d4fc3"/></g><g><path d="m355.702 40.603-5.842 18.696c-1.358 4.344-5.381 7.303-9.933 7.303h-67.951c-4.552 0-8.575-2.958-9.933-7.303l-5.842-18.696c-1.358-4.344-5.381-7.303-9.933-7.303h-52.707c-5.747 0-10.406 4.659-10.406 10.407v424.585c0 5.747 4.659 10.406 10.406 10.406h224.78c5.747 0 10.407-4.659 10.407-10.406v-424.585c0-5.747-4.659-10.407-10.407-10.407h-52.707c-4.551.001-8.575 2.959-9.932 7.303z" fill="#d3effb"/></g><g><path d="m418.341 33.301h-23.935c5.747 0 10.406 4.659 10.406 10.407v424.585c0 5.747-4.659 10.406-10.406 10.406h23.935c5.747 0 10.407-4.659 10.407-10.406v-424.586c0-5.747-4.659-10.406-10.407-10.406z" fill="#b1e4f9"/></g></g><g><g><path d="m49.951 414.179v-141.529c0-11.495 9.318-20.813 20.813-20.813h249.756c11.495 0 20.813 9.318 20.813 20.813v141.528c0 11.495-9.318 20.813-20.813 20.813h-249.756c-11.494.001-20.813-9.317-20.813-20.812z" fill="#ffe07d"/></g><g><path d="m49.951 414.179v-141.529c0-11.495 9.318-20.813 20.813-20.813h249.756c11.495 0 20.813 9.318 20.813 20.813v141.528c0 11.495-9.318 20.813-20.813 20.813h-249.756c-11.494.001-20.813-9.317-20.813-20.812z" fill="#ffe07d"/></g><g><path d="m341.333 272.65c0-11.495-9.318-20.813-20.813-20.813h-249.756c-11.495 0-20.813 9.318-20.813 20.813v5.565l97.842 76.177-93.347 72.682c3.569 4.509 8.96 7.49 15.066 7.855l90.858-70.744 17.371 13.525c10.527 8.196 25.275 8.196 35.801 0l17.371-13.525 90.858 70.744c6.105-.364 11.496-3.345 15.065-7.854l-93.347-72.682 97.843-76.177v-5.566z" fill="#ffd064"/></g><g><path d="m202.035 360.291 132.402-103.085c-3.689-3.326-8.559-5.369-13.917-5.369h-249.756c-5.359 0-10.228 2.042-13.917 5.369l132.402 103.085c3.76 2.927 9.027 2.927 12.786 0z" fill="#ffe07d"/></g></g><g><g><path d="m270.682 170.458-45.635 72.799c-17.379 27.723 2.55 63.735 35.269 63.735h91.271c32.72 0 52.648-36.012 35.269-63.735l-45.635-72.799c-16.313-26.023-54.226-26.023-70.539 0z" fill="#e28086"/></g><g><path d="m386.856 243.257-32.419-51.716c.959 5.735 1.466 11.623 1.466 17.63 0 43.982-26.751 81.717-64.869 97.821h60.553c32.719 0 52.647-36.012 35.269-63.735z" fill="#dd636e"/></g></g><g><g><path d="m315.01 272.229c0 5.003-4.056 9.059-9.059 9.059s-9.059-4.056-9.059-9.059 4.056-9.059 9.059-9.059 9.059 4.056 9.059 9.059z" fill="#f4fbff"/></g></g><g><path d="m316.358 41.027h-20.813c-4.267 0-7.726-3.459-7.726-7.726s3.459-7.726 7.726-7.726h20.813c4.267 0 7.726 3.459 7.726 7.726s-3.459 7.726-7.726 7.726z" fill="#f4fbff"/></g><g><g><g><path d="m306.083 246.196c-4.267 0-7.726-3.459-7.726-7.726v-54.489c0-4.267 3.459-7.726 7.726-7.726s7.726 3.459 7.726 7.726v54.489c.001 4.267-3.458 7.726-7.726 7.726z" fill="#f4fbff"/></g></g></g></g></svg>