<?xml version="1.0" encoding="iso-8859-1"?>
<!-- Generator: Adobe Illustrator 19.0.0, SVG Export Plug-In . SVG Version: 6.00 Build 0)  -->
<svg version="1.1" id="Capa_1" xmlns="http://www.w3.org/2000/svg" xmlns:xlink="http://www.w3.org/1999/xlink" x="0px" y="0px"
	 viewBox="0 0 479.804 479.804" style="enable-background:new 0 0 479.804 479.804;" xml:space="preserve">
<path style="fill:#8C6239;" d="M303.902,316.587l-88-88l112-112l136,136l-64,64"/>
<path style="fill:#A67C52;" d="M135.903,148.583l87.998-87.998l80,80l-87.998,87.998L135.903,148.583z"/>
<g>
	<path style="fill:#C69C6D;" d="M167.907,116.584l24.002-24.002l24.002,24.002l-24.002,24.002L167.907,116.584z"/>
	<path style="fill:#C69C6D;" d="M255.907,188.584l32.001-32.001l40,40l-32.001,32.001L255.907,188.584z"/>
</g>
<g>
	<path style="fill:#666666;" d="M391.902,332.587c-4.418-0.001-7.999-3.583-7.998-8.002c0-2.121,0.843-4.154,2.342-5.654l80-80
		c3.178-3.07,8.242-2.982,11.312,0.196c2.995,3.1,2.995,8.016,0,11.116l-80,80C396.058,331.744,394.023,332.587,391.902,332.587z"/>
	<path style="fill:#666666;" d="M311.902,332.587c-2.122,0-4.156-0.844-5.656-2.344L45.558,69.555
		c-3.124-3.123-8.188-3.123-11.312,0L13.558,90.243c-3.178,3.069-8.243,2.981-11.312-0.197c-2.994-3.1-2.994-8.015,0-11.115
		l20.688-20.688c9.372-9.369,24.564-9.369,33.936,0l260.688,260.688c3.124,3.125,3.123,8.19-0.002,11.314
		C316.056,331.744,314.022,332.587,311.902,332.587z"/>
</g>
<circle style="fill:#333333;" cx="351.902" cy="364.587" r="64"/>
<circle style="fill:#B3B3B3;" cx="351.902" cy="364.587" r="32"/>
<g>
</g>
<g>
</g>
<g>
</g>
<g>
</g>
<g>
</g>
<g>
</g>
<g>
</g>
<g>
</g>
<g>
</g>
<g>
</g>
<g>
</g>
<g>
</g>
<g>
</g>
<g>
</g>
<g>
</g>
</svg>
